<svg width="24" height="25" viewBox="0 0 24 25" fill="none" xmlns="http://www.w3.org/2000/svg">
<path d="M2.28998 8.27998V18.01C2.28998 19.91 3.63998 20.69 5.27998 19.75L7.62998 18.41C8.13998 18.12 8.98998 18.09 9.51998 18.36L14.77 20.99C15.3 21.25 16.15 21.23 16.66 20.94L20.99 18.46C21.54 18.14 22 17.36 22 16.72V6.98998C22 5.08998 20.65 4.30998 19.01 5.24998L16.66 6.58998C16.15 6.87998 15.3 6.90998 14.77 6.63998L9.51998 4.01998C8.98998 3.75998 8.13998 3.77998 7.62998 4.06998L3.29998 6.54998C2.73998 6.86998 2.28998 7.64998 2.28998 8.27998Z" stroke="white" stroke-width="1.5" stroke-linecap="round" stroke-linejoin="round"/>
<path d="M8.56 4.5V17.5" stroke="white" stroke-width="1.5" stroke-linecap="round" stroke-linejoin="round"/>
<path d="M15.73 7.12V20.5" stroke="white" stroke-width="1.5" stroke-linecap="round" stroke-linejoin="round"/>
</svg>
